<svg width="26" height="24" viewBox="0 0 26 24" fill="none" xmlns="http://www.w3.org/2000/svg">
<rect x="0.296875" y="4" width="25" height="20" fill="#939393"/>
<rect x="2.2207" y="6" width="21.1538" height="16" fill="#ECEBE4"/>
<path d="M6.06641 16H7.98948V18H6.06641V16Z" fill="#939393"/>
<path d="M6.06641 16H7.98948V18H6.06641V16Z" fill="#939393"/>
<path d="M6.06641 16H7.98948V18H6.06641V16Z" fill="#939393"/>
<path d="M6.06641 16H7.98948V18H6.06641V16Z" fill="#939393"/>
<path d="M6.06641 16H7.98948V18H6.06641V16Z" fill="#939393"/>
<rect x="17.6055" y="16" width="1.92308" height="2" fill="#939393"/>
<rect x="17.6055" y="16" width="1.92308" height="2" fill="#939393"/>
<rect x="17.6055" y="16" width="1.92308" height="2" fill="#939393"/>
<rect x="17.6055" y="16" width="1.92308" height="2" fill="#939393"/>
<rect x="17.6055" y="16" width="1.92308" height="2" fill="#939393"/>
<rect x="11.8359" y="10" width="1.92308" height="2" fill="#939393"/>
<rect x="11.8359" y="10" width="1.92308" height="2" fill="#939393"/>
<rect x="11.8359" y="10" width="1.92308" height="2" fill="#939393"/>
<rect x="11.8359" y="10" width="1.92308" height="2" fill="#939393"/>
<rect x="11.8359" y="10" width="1.92308" height="2" fill="#939393"/>
<rect x="6.06641" y="10" width="1.92308" height="2" fill="#939393"/>
<rect x="6.06641" y="10" width="1.92308" height="2" fill="#939393"/>
<rect x="6.06641" y="10" width="1.92308" height="2" fill="#939393"/>
<rect x="6.06641" y="10" width="1.92308" height="2" fill="#939393"/>
<rect x="6.06641" y="10" width="1.92308" height="2" fill="#939393"/>
<rect x="11.8359" y="16" width="1.92308" height="2" fill="#939393"/>
<rect x="11.8359" y="16" width="1.92308" height="2" fill="#939393"/>
<rect x="11.8359" y="16" width="1.92308" height="2" fill="#939393"/>
<rect x="11.8359" y="16" width="1.92308" height="2" fill="#939393"/>
<rect x="11.8359" y="16" width="1.92308" height="2" fill="#939393"/>
<rect x="17.6055" y="10" width="1.92308" height="2" fill="#939393"/>
<rect x="17.6055" y="10" width="1.92308" height="2" fill="#939393"/>
<rect x="17.6055" y="10" width="1.92308" height="2" fill="#939393"/>
<rect x="17.6055" y="10" width="1.92308" height="2" fill="#939393"/>
<rect x="17.6055" y="10" width="1.92308" height="2" fill="#939393"/>
<rect x="6.06641" width="1.92308" height="4" fill="#939393"/>
<rect x="11.8359" width="1.92308" height="4" fill="#939393"/>
<rect x="17.6055" width="1.92308" height="4" fill="#939393"/>
</svg>
