<svg width="30" height="30" viewBox="0 0 30 30" fill="none" xmlns="http://www.w3.org/2000/svg">
<path d="M21.4363 0H8.00521C3.13341 0 0.296875 2.67 0.296875 7.245V22.74C0.296875 27.39 3.13341 30 8.00521 30H21.4363C26.3866 30 29.143 27.39 29.143 22.74V7.245C29.143 2.67 26.3866 0 21.4363 0Z" fill="#939393"/>
<path fill-rule="evenodd" clip-rule="evenodd" d="M8.76239 6.9751V6.9901C8.14076 6.9901 7.63739 7.5151 7.63739 8.1601C7.63739 8.8051 8.14076 9.3301 8.76239 9.3301H13.0735C13.6951 9.3301 14.1999 8.8051 14.1999 8.1436C14.1999 7.5001 13.6951 6.9751 13.0735 6.9751H8.76239ZM20.0701 16.1101H8.76239C8.14076 16.1101 7.63739 15.5851 7.63739 14.9401C7.63739 14.2951 8.14076 13.7686 8.76239 13.7686H20.0701C20.6903 13.7686 21.1951 14.2951 21.1951 14.9401C21.1951 15.5851 20.6903 16.1101 20.0701 16.1101ZM20.0703 22.965H8.76262C8.32993 23.025 7.91166 22.8 7.68089 22.425C7.45012 22.035 7.45012 21.54 7.68089 21.165C7.91166 20.775 8.32993 20.565 8.76262 20.61H20.0703C20.6458 20.67 21.0799 21.18 21.0799 21.795C21.0799 22.3935 20.6458 22.905 20.0703 22.965Z" fill="#ECEBE4"/>
</svg>
