<svg width="80" height="80" viewBox="0 0 80 80" fill="none" xmlns="http://www.w3.org/2000/svg">
<mask id="mask0_619_10122" style="mask-type:luminance" maskUnits="userSpaceOnUse" x="0" y="0" width="80" height="80">
<path fill-rule="evenodd" clip-rule="evenodd" d="M0 0H80V80H0V0Z" fill="white"/>
</mask>
<g mask="url(#mask0_619_10122)">
<path fill-rule="evenodd" clip-rule="evenodd" d="M19.0138 69.5083C21.1727 69.5083 23.2087 70.3272 25.3638 71.1944C38.5662 77.2985 54.1806 74.5219 64.3532 64.3534C77.7753 50.9244 77.7753 29.08 64.3532 15.6584C57.8544 9.15979 49.2116 5.58295 40.0104 5.58295C30.8056 5.58295 22.159 9.16351 15.6639 15.6621C5.48757 25.8306 2.7183 41.4444 8.76678 54.5198C9.63776 56.6749 10.479 58.7741 10.479 60.9552C10.479 63.1326 9.73082 65.3248 9.072 67.2603C8.52856 68.8533 7.70597 71.2577 8.23452 71.7862C8.75189 72.3222 11.1713 71.4773 12.7681 70.9302C14.685 70.2751 16.8587 69.5232 19.0138 69.5083ZM39.9179 80.0007C34.2304 80.0007 28.5058 78.7985 23.1496 76.3197C21.5714 75.6869 20.0937 75.0914 19.0329 75.0914C17.8121 75.0989 16.1706 75.6646 14.585 76.2117C11.3318 77.3283 7.28214 78.7204 4.28581 75.7353C1.30065 72.7466 2.67785 68.7082 3.78705 65.4589C4.3342 63.8584 4.89624 62.2058 4.89624 60.9553C4.89624 59.928 4.4012 58.6178 3.64188 56.7308C-3.32969 41.6753 -0.106315 23.5305 11.7189 11.7131C19.2674 4.1612 29.3135 0 40.0072 0C50.7009 0 60.7507 4.15748 68.2992 11.7094C83.9024 27.3121 83.9024 52.6961 68.2992 68.2988C60.6502 75.9512 50.351 80.0007 39.9179 80.0007Z" fill="#939393"/>
</g>
<path fill-rule="evenodd" clip-rule="evenodd" d="M54.6999 45.2694C52.6453 45.2694 50.9629 43.6057 50.9629 41.5474C50.9629 39.4892 52.6118 37.8254 54.6664 37.8254H54.6999C56.7545 37.8254 58.4221 39.4892 58.4221 41.5474C58.4221 43.6057 56.7545 45.2694 54.6999 45.2694Z" fill="#939393"/>
<path fill-rule="evenodd" clip-rule="evenodd" d="M39.78 45.2694C37.7254 45.2694 36.043 43.6057 36.043 41.5474C36.043 39.4892 37.6882 37.8254 39.7465 37.8254H39.78C41.8346 37.8254 43.5021 39.4892 43.5021 41.5474C43.5021 43.6057 41.8346 45.2694 39.78 45.2694Z" fill="#939393"/>
<path fill-rule="evenodd" clip-rule="evenodd" d="M24.8581 45.2694C22.8035 45.2694 21.1211 43.6057 21.1211 41.5474C21.1211 39.4892 22.77 37.8254 24.8246 37.8254H24.8581C26.9127 37.8254 28.5803 39.4892 28.5803 41.5474C28.5803 43.6057 26.9127 45.2694 24.8581 45.2694Z" fill="#939393"/>
</svg>
