<svg width="80" height="80" viewBox="0 0 80 80" fill="none" xmlns="http://www.w3.org/2000/svg">
<path d="M11.0318 0H25.7463C31.8402 0 36.778 4.9817 36.778 11.1297V25.9748C36.778 32.1228 31.8402 37.1045 25.7463 37.1045H11.0318C4.93787 37.1045 0 32.1228 0 25.9748V11.1297C0 4.9817 4.93787 0 11.0318 0Z" fill="#939393"/>
<path d="M11.0318 42.8955H25.7463C31.8402 42.8955 36.778 47.8772 36.778 54.0252V68.8703C36.778 75.0142 31.8402 80 25.7463 80H11.0318C4.93787 80 0 75.0142 0 68.8703V54.0252C0 47.8772 4.93787 42.8955 11.0318 42.8955Z" fill="#939393"/>
<path d="M53.606 42.8955H68.3205C74.4144 42.8955 79.3523 47.8772 79.3523 54.0252V68.8703C79.3523 75.0142 74.4144 80 68.3205 80H53.606C47.5121 80 42.5742 75.0142 42.5742 68.8703V54.0252C42.5742 47.8772 47.5121 42.8955 53.606 42.8955Z" fill="#939393"/>
<path d="M54.2544 0H68.9689C75.0628 0 80.0007 4.9817 80.0007 11.1297V25.9748C80.0007 32.1187 75.0628 37.1045 68.9689 37.1045H54.2544C48.1605 37.1045 43.2227 32.1187 43.2227 25.9748V11.1297C43.2227 4.9817 48.1605 0 54.2544 0Z" fill="#C5C5C5"/>
</svg>
