<svg width="17" height="30" viewBox="0 0 17 30" fill="none" xmlns="http://www.w3.org/2000/svg">
<path d="M6.16016 20.8359C6.1862 19.1432 6.36198 17.776 6.6875 16.7344C7.01302 15.6927 7.47526 14.8529 8.07422 14.2148C8.67318 13.5768 9.48047 12.9583 10.4961 12.3594C11.3555 11.8385 12.0456 11.1745 12.5664 10.3672C13.0872 9.5599 13.3477 8.64844 13.3477 7.63281C13.3477 6.77344 13.1458 6.01172 12.7422 5.34766C12.3385 4.68359 11.7786 4.17578 11.0625 3.82422C10.3464 3.47266 9.55859 3.29688 8.69922 3.29688C7.91797 3.29688 7.1888 3.45312 6.51172 3.76562C5.83464 4.07812 5.26823 4.57943 4.8125 5.26953C4.35677 5.95964 4.08984 6.8125 4.01172 7.82812H0.457031C0.535156 6.29167 0.945312 4.95703 1.6875 3.82422C2.42969 2.69141 3.41276 1.82552 4.63672 1.22656C5.86068 0.627604 7.21484 0.328125 8.69922 0.328125C10.3138 0.328125 11.7331 0.647135 12.957 1.28516C14.181 1.92318 15.125 2.80859 15.7891 3.94141C16.4531 5.07422 16.7852 6.35677 16.7852 7.78906C16.7852 9.27344 16.4531 10.5625 15.7891 11.6562C15.125 12.75 14.168 13.6875 12.918 14.4688C12.0846 14.9635 11.4336 15.4844 10.9648 16.0312C10.4961 16.5781 10.1445 17.2292 9.91016 17.9844C9.67578 18.7396 9.54557 19.6901 9.51953 20.8359V21.0312H6.16016V20.8359ZM7.95703 29.2344C7.51432 29.2344 7.09766 29.1172 6.70703 28.8828C6.31641 28.6484 6.01042 28.3359 5.78906 27.9453C5.56771 27.5547 5.45703 27.138 5.45703 26.6953C5.45703 26.2526 5.56771 25.8359 5.78906 25.4453C6.01042 25.0547 6.31641 24.7487 6.70703 24.5273C7.09766 24.306 7.51432 24.1953 7.95703 24.1953C8.39974 24.1953 8.81641 24.306 9.20703 24.5273C9.59766 24.7487 9.90365 25.0547 10.125 25.4453C10.3464 25.8359 10.457 26.2526 10.457 26.6953C10.457 27.138 10.3464 27.5547 10.125 27.9453C9.90365 28.3359 9.59766 28.6484 9.20703 28.8828C8.81641 29.1172 8.39974 29.2344 7.95703 29.2344Z" fill="#939393"/>
</svg>
