<svg width="80" height="80" viewBox="0 0 80 80" fill="none" xmlns="http://www.w3.org/2000/svg">
<path d="M57.5 35V42.5C57.5 47.1413 55.6563 51.5925 52.3744 54.8744C49.0925 58.1563 44.6413 60 40 60C35.3587 60 30.9075 58.1563 27.6256 54.8744C24.3437 51.5925 22.5 47.1413 22.5 42.5V35H17.5V42.5C17.5026 48.0327 19.5436 53.3704 23.233 57.4933C26.9225 61.6162 32.0016 64.2353 37.5 64.85V70H27.5V75H52.5V70H42.5V64.85C47.9984 64.2353 53.0775 61.6162 56.7669 57.4933C60.4564 53.3704 62.4974 48.0327 62.5 42.5V35H57.5Z" fill="#939393"/>
<path d="M40 55C43.3152 55 46.4946 53.683 48.8388 51.3388C51.183 48.9946 52.5 45.8152 52.5 42.5V17.5C52.5 14.1848 51.183 11.0054 48.8388 8.66117C46.4946 6.31696 43.3152 5 40 5C36.6848 5 33.5054 6.31696 31.1612 8.66117C28.817 11.0054 27.5 14.1848 27.5 17.5V42.5C27.5 45.8152 28.817 48.9946 31.1612 51.3388C33.5054 53.683 36.6848 55 40 55Z" fill="#939393"/>
</svg>
