<svg width="42" height="42" viewBox="0 0 42 42" fill="none" xmlns="http://www.w3.org/2000/svg">
<mask id="mask0_198_1931" style="mask-type:luminance" maskUnits="userSpaceOnUse" x="0" y="0" width="42" height="42">
<path fill-rule="evenodd" clip-rule="evenodd" d="M0.951172 0.653809H41.6847V41.3889H0.951172V0.653809Z" fill="white"/>
</mask>
<g mask="url(#mask0_198_1931)">
<path fill-rule="evenodd" clip-rule="evenodd" d="M10.6327 36.0467C11.7319 36.0467 12.7686 36.4636 13.8659 36.9052C20.5882 40.0134 28.5386 38.5995 33.7181 33.4218C40.5522 26.584 40.5522 15.461 33.7181 8.62692C30.4091 5.3179 26.0085 3.49661 21.3235 3.49661C16.6367 3.49661 12.2341 5.3198 8.92701 8.62882C3.74553 13.8065 2.3355 21.7569 5.4152 28.4147C5.85868 29.512 6.28699 30.5809 6.28699 31.6915C6.28699 32.8002 5.90606 33.9165 5.57061 34.902C5.29391 35.7131 4.87507 36.9375 5.14419 37.2066C5.40762 37.4795 6.6395 37.0493 7.45254 36.7707C8.42857 36.4371 9.53537 36.0543 10.6327 36.0467ZM21.2761 41.3893C18.3803 41.3893 15.4655 40.7771 12.7383 39.5149C11.9347 39.1927 11.1823 38.8895 10.6422 38.8895C10.0205 38.8933 9.18476 39.1814 8.3774 39.46C6.72099 40.0285 4.65902 40.7373 3.13338 39.2174C1.61343 37.6955 2.31465 35.6392 2.87942 33.9847C3.15802 33.1698 3.44419 32.3283 3.44419 31.6915C3.44419 31.1685 3.19213 30.5013 2.80551 29.5405C-0.744205 21.8744 0.89704 12.6353 6.9181 6.61801C10.7616 2.77264 15.8767 0.653809 21.3216 0.653809C26.7665 0.653809 31.8836 2.77075 35.7271 6.61611C43.6717 14.5608 43.6717 27.4861 35.7271 35.4308C31.8324 39.3273 26.5884 41.3893 21.2761 41.3893Z" fill="#FFDA19"/>
</g>
<path fill-rule="evenodd" clip-rule="evenodd" d="M28.8032 23.7045C27.757 23.7045 26.9004 22.8573 26.9004 21.8093C26.9004 20.7612 27.74 19.9141 28.7861 19.9141H28.8032C29.8493 19.9141 30.6984 20.7612 30.6984 21.8093C30.6984 22.8573 29.8493 23.7045 28.8032 23.7045Z" fill="#FFDA19"/>
<path fill-rule="evenodd" clip-rule="evenodd" d="M21.2065 23.7045C20.1603 23.7045 19.3037 22.8573 19.3037 21.8093C19.3037 20.7612 20.1414 19.9141 21.1894 19.9141H21.2065C22.2526 19.9141 23.1017 20.7612 23.1017 21.8093C23.1017 22.8573 22.2526 23.7045 21.2065 23.7045Z" fill="#FFDA19"/>
<path fill-rule="evenodd" clip-rule="evenodd" d="M13.6079 23.7045C12.5617 23.7045 11.7051 22.8573 11.7051 21.8093C11.7051 20.7612 12.5447 19.9141 13.5908 19.9141H13.6079C14.654 19.9141 15.5031 20.7612 15.5031 21.8093C15.5031 22.8573 14.654 23.7045 13.6079 23.7045Z" fill="#FFDA19"/>
</svg>
