<svg width="26" height="27" viewBox="0 0 26 27" fill="none" xmlns="http://www.w3.org/2000/svg">
<path fill-rule="evenodd" clip-rule="evenodd" d="M3.62421 0H8.3671C10.3313 0 11.9229 1.66185 11.9229 3.71277V8.66499C11.9229 10.7159 10.3313 12.3778 8.3671 12.3778H3.62421C1.65997 12.3778 0.0683615 10.7159 0.0683615 8.66499V3.71277C0.0683615 1.66185 1.65997 0 3.62421 0ZM3.6242 14.3095H8.3671C10.3313 14.3095 11.9229 15.9713 11.9229 18.0222V22.9744C11.9229 25.024 10.3313 26.6872 8.3671 26.6872H3.6242C1.65997 26.6872 0.0683594 25.024 0.0683594 22.9744V18.0222C0.0683594 15.9713 1.65997 14.3095 3.6242 14.3095ZM22.0895 14.3095H17.3466C15.3824 14.3095 13.7908 15.9713 13.7908 18.0222V22.9744C13.7908 25.024 15.3824 26.6872 17.3466 26.6872H22.0895C24.0537 26.6872 25.6453 25.024 25.6453 22.9744V18.0222C25.6453 15.9713 24.0537 14.3095 22.0895 14.3095Z" fill="#D9D9D9"/>
<path d="M17.4172 0H22.1601C24.1243 0 25.7159 1.66185 25.7159 3.71277V8.66499C25.7159 10.7145 24.1243 12.3778 22.1601 12.3778H17.4172C15.4529 12.3778 13.8613 10.7145 13.8613 8.66499V3.71277C13.8613 1.66185 15.4529 0 17.4172 0Z" fill="#D9D9D9"/>
</svg>
