<svg width="23" height="23" viewBox="0 0 23 23" fill="none" xmlns="http://www.w3.org/2000/svg">
<path d="M14.7261 2.77008C15.2206 2.27545 15.8848 1.98741 16.5838 1.96439C17.2829 1.94136 17.9645 2.18508 18.4905 2.6461L18.6228 2.77008L19.272 3.41937C19.7664 3.91384 20.0543 4.57778 20.0773 5.27662C20.1003 5.97545 19.8568 6.6569 19.396 7.18284L19.272 7.31508L8.97531 17.6127C8.82972 17.7583 8.65336 17.8694 8.45919 17.9378L8.31041 17.981L4.22 18.9251C4.07671 18.9582 3.92755 18.9564 3.78507 18.92C3.64259 18.8835 3.51094 18.8134 3.40118 18.7155C3.29141 18.6176 3.20674 18.4948 3.15426 18.3574C3.10178 18.22 3.08304 18.072 3.0996 17.9259L3.11796 17.8221L4.06113 13.7308C4.10772 13.5301 4.19873 13.3425 4.32745 13.1816L4.42939 13.0668L14.7261 2.77008ZM14.0768 6.01651L5.82072 14.2726L5.23664 16.8055L7.76949 16.2205L16.0256 7.96437L14.0768 6.01651ZM17.3242 4.06865C17.1661 3.91053 16.9557 3.81554 16.7325 3.80151C16.5093 3.78748 16.2886 3.85536 16.1119 3.99243L16.0256 4.06865L15.3754 4.71794L17.3242 6.66579L17.9735 6.01651C18.1316 5.85837 18.2266 5.64798 18.2406 5.42479C18.2546 5.2016 18.1868 4.98096 18.0497 4.80426L17.9735 4.71794L17.3242 4.06865Z" fill="#A6A6A6"/>
</svg>
