<svg width="34" height="34" viewBox="0 0 34 34" fill="none" xmlns="http://www.w3.org/2000/svg">
<g clip-path="url(#clip0_651_12610)">
<path d="M26.9173 4.25H8.25977L29.7506 25.7408V7.08333C29.7506 5.525 28.4756 4.25 26.9173 4.25Z" fill="#D9D9D9"/>
<path d="M4.97242 4.97248C4.41992 4.41998 3.52742 4.41998 2.97492 4.97248C2.42242 5.52498 2.42242 6.41748 2.97492 6.96998L4.24992 8.25915V26.9166C4.24992 28.475 5.52492 29.75 7.08326 29.75H25.7408L27.0158 31.025C27.5683 31.5775 28.4608 31.5775 29.0133 31.025C29.5658 30.4725 29.5658 29.58 29.0133 29.0275L4.97242 4.97248ZM9.91659 24.0833C9.33576 24.0833 8.99576 23.4175 9.34992 22.95L12.1833 19.1675C12.4666 18.785 13.0333 18.785 13.3166 19.1675L15.9374 22.6666L17.0991 21.1083L20.0741 24.0833H9.91659Z" fill="#D9D9D9"/>
</g>
<defs>
<clipPath id="clip0_651_12610">
<rect width="34" height="34" fill="white"/>
</clipPath>
</defs>
</svg>
