<svg width="26" height="27" viewBox="0 0 26 27" fill="none" xmlns="http://www.w3.org/2000/svg">
<path d="M18.8945 0H6.90213C2.55221 0 0.0195312 2.37534 0.0195312 6.44546V20.2305C0.0195312 24.3673 2.55221 26.6893 6.90213 26.6893H18.8945C23.3145 26.6893 25.7756 24.3673 25.7756 20.2305V6.44546C25.7756 2.37534 23.3145 0 18.8945 0Z" fill="#D9D9D9"/>
<path fill-rule="evenodd" clip-rule="evenodd" d="M7.57917 6.20825V6.2216C7.02413 6.2216 6.57468 6.68866 6.57468 7.26248C6.57468 7.8363 7.02413 8.30336 7.57917 8.30336H11.4284C11.9835 8.30336 12.4342 7.8363 12.4342 7.2478C12.4342 6.67531 11.9835 6.20825 11.4284 6.20825H7.57917ZM17.6756 14.3348H7.57917C7.02413 14.3348 6.57468 13.8678 6.57468 13.2939C6.57468 12.7201 7.02413 12.2517 7.57917 12.2517H17.6756C18.2293 12.2517 18.68 12.7201 18.68 13.2939C18.68 13.8678 18.2293 14.3348 17.6756 14.3348ZM17.6758 20.4331H7.57937C7.19303 20.4865 6.81957 20.2863 6.61352 19.9527C6.40747 19.6057 6.40747 19.1654 6.61352 18.8318C6.81957 18.4848 7.19303 18.298 7.57937 18.338H17.6758C18.1896 18.3914 18.5772 18.8451 18.5772 19.3922C18.5772 19.9247 18.1896 20.3797 17.6758 20.4331Z" fill="white"/>
</svg>
