<svg width="24" height="26" viewBox="0 0 24 26" fill="none" xmlns="http://www.w3.org/2000/svg">
<path d="M7.13913 26H1C0.447715 26 0 25.5523 0 25V13.7311C0 13.4827 0.0924321 13.2432 0.259299 13.0593L11.3636 0.816629C11.7605 0.379075 12.4482 0.379074 12.845 0.816629L23.7407 12.8292C23.9076 13.0131 24 13.2526 24 13.501V25C24 25.5523 23.5523 26 23 26H16.6522C16.0999 26 15.6522 25.5523 15.6522 25V18.6372C15.6522 18.6372 15.6522 15.1858 12.1043 15.1858C7.93043 15.1858 8.13913 18.6372 8.13913 18.6372V25C8.13913 25.5523 7.69141 26 7.13913 26Z" fill="#D9D9D9"/>
</svg>
