<svg width="25" height="26" viewBox="0 0 25 26" fill="none" xmlns="http://www.w3.org/2000/svg">
<path d="M7.43698 26H1.29785C0.745567 26 0.297852 25.5523 0.297852 25V13.7311C0.297852 13.4827 0.390284 13.2432 0.557151 13.0593L11.6615 0.816629C12.0584 0.379075 12.746 0.379074 13.1429 0.816629L24.0386 12.8292C24.2054 13.0131 24.2978 13.2526 24.2978 13.501V25C24.2978 25.5523 23.8501 26 23.2979 26H16.95C16.3977 26 15.95 25.5523 15.95 25V18.6372C15.95 18.6372 15.95 15.1858 12.4022 15.1858C8.22829 15.1858 8.43698 18.6372 8.43698 18.6372V25C8.43698 25.5523 7.98927 26 7.43698 26Z" fill="#4457FC"/>
</svg>
