<svg width="34" height="34" viewBox="0 0 34 34" fill="none" xmlns="http://www.w3.org/2000/svg">
<g clip-path="url(#clip0_651_12600)">
<path d="M4.25 26.9167V7.08333C4.25 5.525 5.525 4.25 7.08333 4.25H26.9167C28.475 4.25 29.75 5.525 29.75 7.08333V26.9167C29.75 28.475 28.475 29.75 26.9167 29.75H7.08333C5.525 29.75 4.25 28.475 4.25 26.9167ZM21.3917 19.805L18.4167 23.3892L14.025 17.7367C13.7417 17.3683 13.175 17.3683 12.8917 17.7508L7.91917 24.3808C7.565 24.8483 7.905 25.5142 8.48583 25.5142H25.4717C26.0667 25.5142 26.3925 24.8342 26.0242 24.3667L22.4967 19.8333C22.2275 19.465 21.6892 19.4508 21.3917 19.805Z" fill="#D9D9D9"/>
</g>
<defs>
<clipPath id="clip0_651_12600">
<rect width="34" height="34" fill="white" transform="matrix(-1 0 0 1 34 0)"/>
</clipPath>
</defs>
</svg>
