<svg width="21" height="20" viewBox="0 0 21 20" fill="none" xmlns="http://www.w3.org/2000/svg">
<path fill-rule="evenodd" clip-rule="evenodd" d="M7.13499 15.8923C7.05822 15.8164 7.01983 15.7785 6.99048 15.7437C6.67684 15.3716 6.67654 14.8278 6.98978 14.4554C7.01909 14.4206 7.05744 14.3826 7.13413 14.3067L11.4837 9.99992L7.13413 5.69316C7.05744 5.61722 7.01909 5.57925 6.98978 5.5444C6.67654 5.17201 6.67684 4.6282 6.99048 4.25616C7.01983 4.22134 7.05822 4.18341 7.13499 4.10756C7.2102 4.03325 7.2478 3.9961 7.28242 3.96755C7.65188 3.66282 8.18552 3.66282 8.55499 3.96755C8.58961 3.9961 8.62721 4.03325 8.70241 4.10756L13.2263 8.57719C13.9045 9.24717 14.2435 9.58216 14.2435 9.99992C14.2435 10.4177 13.9045 10.7527 13.2263 11.4226L8.70241 15.8923C8.62721 15.9666 8.58961 16.0037 8.55499 16.0323C8.18552 16.337 7.65188 16.337 7.28242 16.0323C7.2478 16.0037 7.2102 15.9666 7.13499 15.8923Z" fill="#949494"/>
</svg>
