<svg width="24" height="25" viewBox="0 0 24 25" fill="none" xmlns="http://www.w3.org/2000/svg">
<path fill-rule="evenodd" clip-rule="evenodd" d="M17.2332 10.1166C17.2332 11.8532 16.6473 13.4608 15.6585 14.7473C15.6751 14.7619 15.6913 14.7771 15.7071 14.7929L21.7071 20.7929C22.0976 21.1834 22.0976 21.8166 21.7071 22.2071C21.3166 22.5976 20.6834 22.5976 20.2929 22.2071L14.2929 16.2071C14.2771 16.1913 14.2619 16.1751 14.2473 16.1585C12.9608 17.1473 11.3532 17.7332 9.61658 17.7332C5.40989 17.7332 2 14.3233 2 10.1166C2 5.90989 5.40989 2.5 9.61658 2.5C13.8233 2.5 17.2332 5.90989 17.2332 10.1166ZM4.34356 10.1166C4.34356 13.0343 6.69885 15.3896 9.61658 15.3896C12.5343 15.3896 14.8896 13.0343 14.8896 10.1166C14.8896 7.19885 12.5343 4.84356 9.61658 4.84356C6.69885 4.84356 4.34356 7.19885 4.34356 10.1166Z" fill="black" fill-opacity="0.87"/>
</svg>
