<svg width="40" height="40" viewBox="0 0 40 40" fill="none" xmlns="http://www.w3.org/2000/svg">
<path fill-rule="evenodd" clip-rule="evenodd" d="M20 40C31.0457 40 40 31.0457 40 20C40 8.9543 31.0457 0 20 0C8.9543 0 0 8.9543 0 20C0 31.0457 8.9543 40 20 40ZM20 35C28.2843 35 35 28.2843 35 20C35 11.7157 28.2843 5 20 5C11.7157 5 5 11.7157 5 20C5 28.2843 11.7157 35 20 35Z" fill="#D9D9D9"/>
<path fill-rule="evenodd" clip-rule="evenodd" d="M35.8628 7.81837C38.5461 11.3124 40.0007 15.5946 40.0007 20H35.0007C35.0007 11.7157 28.285 5.00001 20.0007 5.00001C14.4404 5.00001 9.58679 8.02535 6.99604 12.5197L2.66406 10.028C4.86062 6.20921 8.25659 3.22252 12.3247 1.5317C16.3927 -0.15912 20.9052 -0.459461 25.1615 0.677317C29.4177 1.81409 33.1796 4.32438 35.8628 7.81837Z" fill="#4457FC"/>
</svg>
